<?xml version="1.0" standalone="no"?>
<!DOCTYPE svg PUBLIC "-//W3C//DTD SVG 20010904//EN"
 "http://www.w3.org/TR/2001/REC-SVG-20010904/DTD/svg10.dtd">
<svg version="1.0" xmlns="http://www.w3.org/2000/svg"
 width="96.000000pt" height="96.000000pt" viewBox="0 0 96.000000 96.000000"
 preserveAspectRatio="xMidYMid meet">
<metadata>
Created by potrace 1.11, written by Peter Selinger 2001-2013
</metadata>
<g transform="translate(0.000000,96.000000) scale(0.100000,-0.100000)"
fill="#000000" stroke="none">
<path d="M386 870 c-63 -16 -153 -70 -197 -117 -22 -24 -55 -74 -72 -111 -29
-61 -32 -76 -32 -163 0 -90 2 -99 37 -171 45 -91 103 -147 196 -191 61 -29 76
-32 163 -32 90 0 99 2 171 38 313 154 294 603 -30 727 -63 24 -180 33 -236 20z
m114 -153 c0 -19 7 -25 43 -33 40 -8 42 -11 45 -48 3 -38 3 -38 -25 -30 -52
15 -125 11 -137 -8 -8 -13 -8 -23 0 -35 11 -19 24 -26 109 -66 85 -39 107
-120 50 -181 -14 -15 -38 -29 -55 -32 -25 -6 -30 -11 -30 -35 0 -22 -5 -29
-20 -29 -16 0 -20 7 -20 30 0 23 -4 30 -20 30 -11 0 -36 7 -55 14 -30 13 -35
20 -35 47 0 31 1 31 33 23 61 -15 139 -11 151 9 17 27 -3 48 -70 75 -81 32
-116 68 -118 120 -1 51 28 93 75 108 26 9 35 18 37 38 4 34 42 37 42 3z"/>
</g>
</svg>
